<svg xmlns="http://www.w3.org/2000/svg" xmlns:xlink="http://www.w3.org/1999/xlink" width="500" zoomAndPan="magnify" viewBox="0 0 375 374.999991" height="500" preserveAspectRatio="xMidYMid meet" version="1.0"><defs><clipPath id="e3f90bf343"><path d="M 165 154 L 353.785156 154 L 353.785156 187 L 165 187 Z M 165 154 " clip-rule="nonzero"/></clipPath><clipPath id="eab33e8357"><path d="M 152 125.78125 L 309 125.78125 L 309 172 L 152 172 Z M 152 125.78125 " clip-rule="nonzero"/></clipPath><clipPath id="e0169a8e09"><path d="M 21.535156 188 L 210 188 L 210 221 L 21.535156 221 Z M 21.535156 188 " clip-rule="nonzero"/></clipPath><clipPath id="d42ab3ffc2"><path d="M 66 203 L 223 203 L 223 249.53125 L 66 249.53125 Z M 66 203 " clip-rule="nonzero"/></clipPath></defs><path fill="#ffffff" d="M 151.125 169.429688 C 152.449219 169.429688 153.523438 170.503906 153.523438 171.828125 C 153.523438 173.152344 152.449219 174.226562 151.125 174.226562 C 149.800781 174.226562 148.730469 173.152344 148.730469 171.828125 C 148.730469 170.503906 149.800781 169.429688 151.125 169.429688 Z M 309.582031 215.097656 C 310.90625 215.097656 311.980469 216.171875 311.980469 217.496094 C 311.980469 218.820312 310.90625 219.894531 309.582031 219.894531 C 308.261719 219.894531 307.1875 218.820312 307.1875 217.496094 C 307.1875 216.171875 308.261719 215.097656 309.582031 215.097656 Z M 167.738281 238.890625 C 166.414062 238.890625 165.339844 237.816406 165.339844 236.492188 C 165.339844 235.167969 166.414062 234.09375 167.738281 234.09375 C 169.0625 234.09375 170.136719 235.167969 170.136719 236.492188 C 170.136719 237.816406 169.0625 238.890625 167.738281 238.890625 Z M 151.125 175.585938 C 152.855469 175.585938 154.3125 174.414062 154.75 172.820312 L 211.816406 172.820312 L 255.496094 216.5 L 241.871094 216.5 L 222.875 235.5 L 171.363281 235.5 C 170.925781 233.90625 169.46875 232.734375 167.738281 232.734375 C 165.664062 232.734375 163.984375 234.417969 163.984375 236.492188 C 163.984375 238.566406 165.664062 240.25 167.738281 240.25 C 169.402344 240.25 170.8125 239.167969 171.304688 237.667969 L 223.773438 237.667969 L 242.773438 218.671875 L 306.019531 218.671875 C 306.511719 220.167969 307.921875 221.25 309.582031 221.25 C 311.660156 221.25 313.339844 219.570312 313.339844 217.496094 C 313.339844 215.417969 311.660156 213.738281 309.582031 213.738281 C 307.855469 213.738281 306.398438 214.910156 305.960938 216.5 L 258.566406 216.5 L 212.714844 170.652344 L 154.691406 170.652344 C 154.199219 169.152344 152.789062 168.070312 151.125 168.070312 C 149.050781 168.070312 147.371094 169.753906 147.371094 171.828125 C 147.371094 173.902344 149.050781 175.585938 151.125 175.585938 " fill-opacity="1" fill-rule="nonzero"/><g clip-path="url(#e3f90bf343)"><path fill="#ffffff" d="M 241.824219 159.324219 L 179.289062 159.324219 C 178.476562 156.433594 175.820312 154.316406 172.667969 154.316406 C 168.871094 154.316406 165.792969 157.394531 165.792969 161.195312 C 165.792969 164.992188 168.871094 168.074219 172.667969 168.074219 C 175.597656 168.074219 178.09375 166.246094 179.089844 163.667969 L 240.023438 163.667969 L 258.003906 181.652344 L 340.039062 181.652344 C 341.03125 184.226562 343.53125 186.054688 346.457031 186.054688 C 350.257812 186.054688 353.335938 182.976562 353.335938 179.175781 C 353.335938 175.378906 350.257812 172.296875 346.457031 172.296875 C 343.304688 172.296875 340.652344 174.417969 339.839844 177.308594 L 259.804688 177.308594 L 241.824219 159.324219 " fill-opacity="1" fill-rule="nonzero"/></g><g clip-path="url(#eab33e8357)"><path fill="#ffffff" d="M 156.6875 127.144531 C 158.011719 127.144531 159.085938 128.21875 159.085938 129.542969 C 159.085938 130.867188 158.011719 131.941406 156.6875 131.941406 C 155.363281 131.941406 154.289062 130.867188 154.289062 129.542969 C 154.289062 128.21875 155.363281 127.144531 156.6875 127.144531 Z M 304.71875 164.96875 C 306.042969 164.96875 307.117188 166.042969 307.117188 167.367188 C 307.117188 168.691406 306.042969 169.761719 304.71875 169.761719 C 303.398438 169.761719 302.320312 168.691406 302.320312 167.367188 C 302.320312 166.042969 303.398438 164.96875 304.71875 164.96875 Z M 192.285156 150.960938 C 190.960938 150.960938 189.886719 149.886719 189.886719 148.5625 C 189.886719 147.238281 190.960938 146.167969 192.285156 146.167969 C 193.609375 146.167969 194.683594 147.238281 194.683594 148.5625 C 194.683594 149.886719 193.609375 150.960938 192.285156 150.960938 Z M 156.6875 133.300781 C 158.417969 133.300781 159.875 132.128906 160.3125 130.535156 L 211.824219 130.535156 L 228.675781 147.386719 L 195.851562 147.386719 C 195.359375 145.886719 193.949219 144.808594 192.285156 144.808594 C 190.210938 144.808594 188.527344 146.488281 188.527344 148.5625 C 188.527344 150.636719 190.210938 152.320312 192.285156 152.320312 C 194.015625 152.320312 195.472656 151.148438 195.90625 149.554688 L 247.421875 149.554688 L 266.417969 168.550781 L 301.15625 168.550781 C 301.652344 170.046875 303.0625 171.121094 304.71875 171.121094 C 306.796875 171.121094 308.476562 169.441406 308.476562 167.367188 C 308.476562 165.292969 306.796875 163.609375 304.71875 163.609375 C 302.984375 163.609375 301.527344 164.785156 301.09375 166.382812 L 267.320312 166.382812 L 248.320312 147.386719 L 247.429688 147.386719 L 247.429688 147.363281 L 231.722656 147.363281 L 212.722656 128.363281 L 160.253906 128.363281 C 159.761719 126.867188 158.351562 125.785156 156.6875 125.785156 C 154.613281 125.785156 152.933594 127.46875 152.933594 129.542969 C 152.933594 131.617188 154.613281 133.300781 156.6875 133.300781 " fill-opacity="1" fill-rule="nonzero"/></g><path fill="#ffffff" d="M 284.488281 198.148438 L 257.960938 198.148438 L 241.859375 182.046875 L 225.644531 182.046875 L 227.816406 184.21875 L 240.960938 184.21875 L 257.0625 200.320312 L 284.523438 200.320312 C 285.007812 201.835938 286.425781 202.933594 288.101562 202.933594 C 290.175781 202.933594 291.859375 201.25 291.859375 199.179688 C 291.859375 197.101562 290.175781 195.421875 288.101562 195.421875 C 286.382812 195.421875 284.933594 196.574219 284.488281 198.148438 " fill-opacity="1" fill-rule="nonzero"/><path fill="#ffffff" d="M 221.675781 184.21875 L 219.503906 182.046875 L 174.703125 182.046875 C 174.257812 180.472656 172.808594 179.316406 171.089844 179.316406 C 169.015625 179.316406 167.335938 181 167.335938 183.074219 C 167.335938 185.148438 169.015625 186.828125 171.089844 186.828125 C 172.765625 186.828125 174.1875 185.734375 174.667969 184.21875 L 221.675781 184.21875 " fill-opacity="1" fill-rule="nonzero"/><path fill="#ffffff" d="M 223.867188 205.585938 C 222.539062 205.585938 221.464844 204.511719 221.464844 203.1875 C 221.464844 201.863281 222.539062 200.789062 223.867188 200.789062 C 225.1875 200.789062 226.261719 201.863281 226.261719 203.1875 C 226.261719 204.511719 225.1875 205.585938 223.867188 205.585938 Z M 65.40625 159.917969 C 64.082031 159.917969 63.007812 158.84375 63.007812 157.519531 C 63.007812 156.195312 64.082031 155.121094 65.40625 155.121094 C 66.730469 155.121094 67.804688 156.195312 67.804688 157.519531 C 67.804688 158.84375 66.730469 159.917969 65.40625 159.917969 Z M 207.253906 136.125 C 208.578125 136.125 209.648438 137.199219 209.648438 138.523438 C 209.648438 139.847656 208.578125 140.921875 207.253906 140.921875 C 205.929688 140.921875 204.855469 139.847656 204.855469 138.523438 C 204.855469 137.199219 205.929688 136.125 207.253906 136.125 Z M 223.867188 199.429688 C 222.132812 199.429688 220.679688 200.601562 220.242188 202.195312 L 163.175781 202.195312 L 119.496094 158.511719 L 133.117188 158.511719 L 152.117188 139.515625 L 203.628906 139.515625 C 204.066406 141.109375 205.523438 142.277344 207.253906 142.277344 C 209.324219 142.277344 211.007812 140.597656 211.007812 138.523438 C 211.007812 136.449219 209.324219 134.765625 207.253906 134.765625 C 205.589844 134.765625 204.179688 135.847656 203.683594 137.34375 L 151.214844 137.34375 L 132.21875 156.34375 L 68.972656 156.34375 C 68.480469 154.847656 67.070312 153.761719 65.40625 153.761719 C 63.332031 153.761719 61.648438 155.445312 61.648438 157.519531 C 61.648438 159.59375 63.332031 161.277344 65.40625 161.277344 C 67.136719 161.277344 68.59375 160.105469 69.027344 158.511719 L 116.425781 158.511719 L 162.277344 204.363281 L 220.296875 204.363281 C 220.792969 205.863281 222.203125 206.941406 223.867188 206.941406 C 225.9375 206.941406 227.621094 205.261719 227.621094 203.1875 C 227.621094 201.113281 225.9375 199.429688 223.867188 199.429688 " fill-opacity="1" fill-rule="nonzero"/><g clip-path="url(#e0169a8e09)"><path fill="#ffffff" d="M 133.167969 215.6875 L 195.703125 215.6875 C 196.515625 218.578125 199.171875 220.699219 202.320312 220.699219 C 206.121094 220.699219 209.199219 217.621094 209.199219 213.820312 C 209.199219 210.019531 206.121094 206.941406 202.320312 206.941406 C 199.394531 206.941406 196.898438 208.769531 195.902344 211.347656 L 134.96875 211.347656 L 116.984375 193.363281 L 34.953125 193.363281 C 33.960938 190.789062 31.460938 188.960938 28.535156 188.960938 C 24.734375 188.960938 21.65625 192.039062 21.65625 195.839844 C 21.65625 199.636719 24.734375 202.71875 28.535156 202.71875 C 31.6875 202.71875 34.339844 200.597656 35.15625 197.707031 L 115.1875 197.707031 L 133.167969 215.6875 " fill-opacity="1" fill-rule="nonzero"/></g><g clip-path="url(#d42ab3ffc2)"><path fill="#ffffff" d="M 218.304688 247.871094 C 216.980469 247.871094 215.90625 246.796875 215.90625 245.46875 C 215.90625 244.148438 216.980469 243.074219 218.304688 243.074219 C 219.628906 243.074219 220.699219 244.148438 220.699219 245.46875 C 220.699219 246.796875 219.628906 247.871094 218.304688 247.871094 Z M 70.273438 210.046875 C 68.949219 210.046875 67.875 208.972656 67.875 207.648438 C 67.875 206.324219 68.949219 205.25 70.273438 205.25 C 71.59375 205.25 72.667969 206.324219 72.667969 207.648438 C 72.667969 208.972656 71.59375 210.046875 70.273438 210.046875 Z M 182.707031 224.054688 C 184.03125 224.054688 185.105469 225.125 185.105469 226.453125 C 185.105469 227.773438 184.03125 228.847656 182.707031 228.847656 C 181.382812 228.847656 180.308594 227.773438 180.308594 226.453125 C 180.308594 225.125 181.382812 224.054688 182.707031 224.054688 Z M 218.304688 241.714844 C 216.574219 241.714844 215.117188 242.886719 214.679688 244.476562 L 163.167969 244.476562 L 146.320312 227.628906 L 179.140625 227.628906 C 179.632812 229.125 181.042969 230.207031 182.707031 230.207031 C 184.78125 230.207031 186.460938 228.527344 186.460938 226.453125 C 186.460938 224.375 184.78125 222.695312 182.707031 222.695312 C 180.976562 222.695312 179.519531 223.867188 179.082031 225.457031 L 127.570312 225.457031 L 108.574219 206.460938 L 73.835938 206.460938 C 73.339844 204.96875 71.929688 203.890625 70.273438 203.890625 C 68.199219 203.890625 66.515625 205.574219 66.515625 207.648438 C 66.515625 209.722656 68.199219 211.40625 70.273438 211.40625 C 72.003906 211.40625 73.464844 210.230469 73.898438 208.632812 L 107.675781 208.632812 L 126.671875 227.628906 L 127.5625 227.628906 L 127.5625 227.652344 L 143.269531 227.652344 L 162.269531 246.648438 L 214.734375 246.648438 C 215.230469 248.148438 216.640625 249.226562 218.304688 249.226562 C 220.378906 249.226562 222.058594 247.546875 222.058594 245.46875 C 222.058594 243.398438 220.378906 241.714844 218.304688 241.714844 " fill-opacity="1" fill-rule="nonzero"/></g><path fill="#ffffff" d="M 90.503906 176.863281 L 117.027344 176.863281 L 133.132812 192.96875 L 149.34375 192.96875 L 147.171875 190.796875 L 134.03125 190.796875 L 117.929688 174.695312 L 90.46875 174.695312 C 89.984375 173.179688 88.566406 172.082031 86.890625 172.082031 C 84.816406 172.082031 83.132812 173.761719 83.132812 175.835938 C 83.132812 177.910156 84.816406 179.59375 86.890625 179.59375 C 88.609375 179.59375 90.058594 178.441406 90.503906 176.863281 " fill-opacity="1" fill-rule="nonzero"/><path fill="#ffffff" d="M 153.3125 190.796875 L 155.484375 192.96875 L 200.289062 192.96875 C 200.734375 194.542969 202.183594 195.699219 203.898438 195.699219 C 205.976562 195.699219 207.65625 194.015625 207.65625 191.941406 C 207.65625 189.867188 205.976562 188.183594 203.898438 188.183594 C 202.226562 188.183594 200.804688 189.28125 200.320312 190.796875 L 153.3125 190.796875 " fill-opacity="1" fill-rule="nonzero"/></svg>